<svg xmlns="http://www.w3.org/2000/svg" width="19.903" height="19.903" viewBox="0 0 19.903 19.903"><defs><style>.a{fill:#fff;}</style></defs><path class="a" d="M141.655,144h-8.03l4.015,3.442Zm0,0" transform="translate(-127.688 -137.603)"/><path class="a" d="M124.62,157.238a.355.355,0,0,1-.231-.086L120,153.391v6.691h9.241v-6.691l-4.389,3.762a.355.355,0,0,1-.231.086Zm0,0" transform="translate(-114.669 -146.576)"/><path class="a" d="M9.952,0A9.952,9.952,0,1,0,19.9,9.952,9.952,9.952,0,0,0,9.952,0Zm5.331,13.861a.355.355,0,0,1-.355.355H4.976a.355.355,0,0,1-.355-.355V6.042a.355.355,0,0,1,.355-.355h9.952a.355.355,0,0,1,.355.355Zm0,0"/></svg>