<svg xmlns="http://www.w3.org/2000/svg" width="20.268" height="20.269" viewBox="0 0 20.268 20.269"><defs><style>.a{fill:#fff;}</style></defs><g transform="translate(-0.001)"><g transform="translate(0.001)"><g transform="translate(0)"><circle class="a" cx="1.632" cy="1.632" r="1.632" transform="translate(8.532 5.839)"/><path class="a" d="M10.135,0A10.134,10.134,0,1,0,20.269,10.134,10.134,10.134,0,0,0,10.135,0Zm-.021,4.64h.042a3.16,3.16,0,0,1,3.1,3.146c0,2.088-2.231,4.2-3.118,4.96-.059-.051-.125-.108-.2-.17l0,0C8.955,11.7,7.017,9.733,7.017,7.786A3.16,3.16,0,0,1,10.114,4.64Zm.065,11.051c-1.869,0-3.761-.536-3.761-1.561,0-.719.932-1.2,2.133-1.418.232.234.452.439.645.611-1.308.146-2.077.56-2.077.807,0,.3,1.162.86,3.06.86s3.06-.557,3.06-.86c0-.252-.8-.676-2.157-.814.195-.174.416-.382.65-.618,1.237.215,2.208.7,2.208,1.432C13.941,15.155,12.048,15.691,10.179,15.691Z" transform="translate(-0.001)"/></g></g></g></svg>