<svg xmlns="http://www.w3.org/2000/svg" width="50.004" height="37.503" viewBox="0 0 50.004 37.503"><defs><style>.a{fill:#00226c;}</style></defs><g transform="translate(0 -64)"><g transform="translate(0 64)"><path class="a" d="M7.282,67.043c6.863,5.812,18.9,16.037,22.444,19.225a2.091,2.091,0,0,0,3.025,0c3.542-3.191,15.584-13.418,22.447-19.23a1.041,1.041,0,0,0,.146-1.438A4.137,4.137,0,0,0,52.075,64H10.405a4.137,4.137,0,0,0-3.27,1.605A1.041,1.041,0,0,0,7.282,67.043Z" transform="translate(-6.238 -64)"/><path class="a" d="M354.7,126.509a1.037,1.037,0,0,0-1.111.151c-4.495,3.81-10.416,8.844-14.882,12.685a1.041,1.041,0,0,0,.029,1.6c4.15,3.324,10.4,7.9,14.919,11.145a1.042,1.042,0,0,0,1.65-.845V127.454A1.041,1.041,0,0,0,354.7,126.509Z" transform="translate(-305.3 -120.316)"/><path class="a" d="M1.65,152.1c4.517-3.249,10.772-7.821,14.92-11.145a1.041,1.041,0,0,0,.029-1.6c-4.466-3.841-10.389-8.875-14.884-12.685A1.042,1.042,0,0,0,0,127.462v23.792a1.041,1.041,0,0,0,1.65.845Z" transform="translate(0 -120.325)"/><path class="a" d="M56.508,297.679c-4.361-3.12-12.4-8.937-17.191-12.83a1.044,1.044,0,0,0-1.341.023c-.941.821-1.728,1.513-2.287,2.015a4.218,4.218,0,0,1-5.815,0c-.556-.5-1.344-1.2-2.285-2.013a1.038,1.038,0,0,0-1.34-.023c-4.779,3.879-12.822,9.7-17.191,12.829a1.042,1.042,0,0,0-.157,1.557,4.174,4.174,0,0,0,3.046,1.337h41.67a4.18,4.18,0,0,0,3.047-1.337,1.042,1.042,0,0,0-.157-1.556Z" transform="translate(-7.781 -263.07)"/></g></g></svg>