<svg xmlns="http://www.w3.org/2000/svg" width="50" height="50" viewBox="0 0 50 50"><defs><style>.a{fill:#00226c;}</style></defs><g transform="translate(0)"><g transform="translate(0 0)"><g transform="translate(0 0)"><path class="a" d="M49.028,39.758l-5.543-3.7-4.928-3.284a2.183,2.183,0,0,0-2.931.476l-3.049,3.92a2.172,2.172,0,0,1-2.772.575c-2.069-1.151-4.515-2.234-9.914-7.64S13.4,22.264,12.252,20.2a2.171,2.171,0,0,1,.575-2.772l3.92-3.049a2.183,2.183,0,0,0,.476-2.931L14.039,6.667,10.242.972A2.183,2.183,0,0,0,7.3.311L2.925,2.938A5.349,5.349,0,0,0,.5,6.082c-1.2,4.365-1.439,14,13.995,29.429S39.553,50.7,43.919,49.5a5.349,5.349,0,0,0,3.144-2.429L49.689,42.7A2.183,2.183,0,0,0,49.028,39.758Z" transform="translate(0 0)"/><path class="a" d="M283.346,63.52a14.7,14.7,0,0,1,14.686,14.686.864.864,0,0,0,1.728,0,16.431,16.431,0,0,0-16.413-16.413.864.864,0,1,0,0,1.728Z" transform="translate(-254.943 -55.745)"/><path class="a" d="M283.345,116.484a9.514,9.514,0,0,1,9.5,9.5.864.864,0,1,0,1.728,0,11.243,11.243,0,0,0-11.23-11.23.864.864,0,0,0,0,1.728Z" transform="translate(-254.914 -103.557)"/><path class="a" d="M283.346,169.451a4.324,4.324,0,0,1,4.319,4.319.864.864,0,0,0,1.728,0,6.054,6.054,0,0,0-6.047-6.047.864.864,0,1,0,0,1.728Z" transform="translate(-254.905 -151.349)"/></g></g></g></svg>