<svg xmlns="http://www.w3.org/2000/svg" width="45.845" height="50" viewBox="0 0 45.845 50"><defs><style>.a{fill:#00226c;}</style></defs><g transform="translate(-21.333)"><g transform="translate(21.333)"><path class="a" d="M49.354,35.592,57.1,21.507a14.587,14.587,0,1,0-25.676.006l7.737,14.079c-6.832.433-17.824,1.935-17.824,7.116C21.333,49.8,41.909,50,44.256,50s22.923-.2,22.923-7.292C67.178,37.527,56.186,36.026,49.354,35.592ZM35.92,14.583a8.335,8.335,0,1,1,8.335,8.333A8.344,8.344,0,0,1,35.92,14.583Zm8.335,31.25c-10.245,0-16.964-1.873-18.538-3.125,1.421-1.131,7.046-2.762,15.663-3.069l1.962,3.571a1.041,1.041,0,0,0,1.825,0l1.963-3.571c8.617.307,14.242,1.939,15.663,3.069C61.22,43.961,54.5,45.833,44.256,45.833Z" transform="translate(-21.333)"/></g></g></svg>