<svg xmlns="http://www.w3.org/2000/svg" width="20" height="20" viewBox="0 0 20 20"><defs><style>.a{fill:#fff;}</style></defs><g transform="translate(0 0)"><g transform="translate(0 0)"><path class="a" d="M17.07,2.927A10,10,0,1,0,20,10,10,10,0,0,0,17.07,2.927Zm-1.925,11h0v0l-.507.5a2.667,2.667,0,0,1-2.517.72A8.861,8.861,0,0,1,9.546,14a11.89,11.89,0,0,1-2.03-1.637A11.981,11.981,0,0,1,6,10.521,9.332,9.332,0,0,1,4.86,8.214a2.667,2.667,0,0,1,.667-2.723L6.12,4.9a.423.423,0,0,1,.6,0h0L8.593,6.771a.423.423,0,0,1,0,.6h0l-1.1,1.1A.9.9,0,0,0,7.4,9.638a12.865,12.865,0,0,0,1.317,1.537,12.786,12.786,0,0,0,1.733,1.457.9.9,0,0,0,1.153-.1l1.063-1.08a.423.423,0,0,1,.6,0h0l1.877,1.88A.423.423,0,0,1,15.144,13.929Z" transform="translate(0 0)"/></g></g></svg>